<?xml version="1.0" standalone="no"?>
<!DOCTYPE svg PUBLIC "-//W3C//DTD SVG 20010904//EN"
 "http://www.w3.org/TR/2001/REC-SVG-20010904/DTD/svg10.dtd">
<svg version="1.0" xmlns="http://www.w3.org/2000/svg"
 width="224.000000pt" height="224.000000pt" viewBox="0 0 224.000000 224.000000"
 preserveAspectRatio="xMidYMid meet">
<metadata>
Created by potrace 1.14, written by Peter Selinger 2001-2017
</metadata>
<g transform="translate(0.000000,224.000000) scale(0.100000,-0.100000)"
fill="#000000" stroke="none">
<path d="M1120 1929 c-98 -25 -180 -65 -257 -123 -62 -47 -139 -130 -162 -174
-16 -30 -65 -51 -105 -45 -34 4 -75 -24 -78 -55 0 -9 -2 -21 -3 -27 -2 -5 -3
-16 -4 -24 -1 -8 -7 -11 -18 -7 -9 4 -20 1 -24 -5 -4 -8 -42 -13 -106 -13
-110 -2 -216 -31 -253 -71 -43 -46 -33 -112 23 -145 32 -19 33 -22 31 -77 -1
-32 -4 -69 -7 -83 -3 -14 -8 -41 -12 -60 -6 -33 -9 -35 -47 -37 -45 -1 -83
-30 -91 -68 -6 -35 26 -98 62 -125 57 -40 199 -65 261 -45 20 6 21 4 15 -27
-24 -127 -19 -312 10 -368 27 -53 80 -74 125 -50 10 6 33 37 51 70 21 40 38
60 48 58 8 -2 29 -27 45 -55 29 -52 36 -58 87 -73 34 -10 85 19 99 55 5 14 15
26 22 26 7 1 27 3 43 6 77 13 141 1 165 -30 11 -14 34 -28 50 -32 47 -10 80
13 113 80 l30 60 18 -42 c19 -45 46 -64 95 -70 32 -3 56 15 78 60 16 31 48 28
64 -6 19 -38 66 -61 102 -49 17 6 31 7 37 1 20 -20 69 -26 114 -14 41 10 49 9
69 -7 32 -26 83 -23 118 7 40 33 80 128 104 243 11 53 21 98 23 100 2 2 27 -4
56 -12 106 -32 142 -10 100 58 -18 29 -21 47 -19 132 3 89 1 102 -19 131 -13
17 -23 41 -23 53 0 12 -13 34 -28 48 -15 15 -38 44 -51 64 -12 21 -35 47 -51
58 -23 17 -29 29 -35 82 -9 82 -10 85 -30 154 -63 216 -232 386 -460 460 -109
36 -267 42 -375 13z m307 -290 c130 -48 226 -153 262 -286 21 -76 17 -107 -16
-139 -37 -35 -69 -96 -79 -149 -7 -39 -52 -140 -59 -133 -7 7 25 154 46 210
39 106 5 167 -87 154 -27 -3 -54 -1 -67 6 -26 14 -101 12 -130 -3 -12 -6 -39
-27 -59 -47 l-38 -36 19 70 c26 93 54 152 91 194 39 44 49 69 43 104 -11 53
-92 79 -150 47 -48 -25 -125 -151 -139 -228 -4 -24 -12 -33 -25 -33 -28 0 -32
-1 -51 -11 -20 -11 -29 0 -33 44 -1 18 -6 43 -9 57 -6 21 1 34 44 77 115 118
286 157 437 102z"/>
<path d="M2040 468 c0 -4 7 -8 15 -8 11 0 15 -11 15 -40 0 -22 5 -40 10 -40 6
0 10 18 10 40 0 29 4 40 15 40 8 0 15 4 15 8 0 5 -18 9 -40 9 -22 0 -40 -4
-40 -9z"/>
<path d="M2128 430 c-2 -35 1 -50 10 -50 6 0 12 12 13 28 l1 27 10 -27 c13
-37 23 -35 36 5 l10 32 1 -32 c2 -53 21 -38 21 15 0 37 -4 49 -15 49 -9 0 -18
-11 -21 -24 -7 -28 -24 -31 -24 -4 0 15 -18 31 -35 31 -2 0 -5 -23 -7 -50z"/>
</g>
</svg>
